<?xml version="1.0" encoding="UTF-8" standalone="no"?>
<!-- Created with Inkscape (http://www.inkscape.org/) -->
<svg
   xmlns:dc="http://purl.org/dc/elements/1.1/"
   xmlns:cc="http://creativecommons.org/ns#"
   xmlns:rdf="http://www.w3.org/1999/02/22-rdf-syntax-ns#"
   xmlns:svg="http://www.w3.org/2000/svg"
   xmlns="http://www.w3.org/2000/svg"
   xmlns:sodipodi="http://sodipodi.sourceforge.net/DTD/sodipodi-0.dtd"
   xmlns:inkscape="http://www.inkscape.org/namespaces/inkscape"
   width="100"
   height="100"
   id="svg1901"
   sodipodi:version="0.32"
   inkscape:version="0.46+pre4"
   sodipodi:docname="kello.svg"
   sodipodi:docbase="C:\Important\svg"
   version="1.0"
   inkscape:output_extension="org.inkscape.output.svg.inkscape"
   inkscape:export-filename="C:\Documents and Settings\HP_Omistaja\Ty  p  yt  \kellotaulu.png"
   inkscape:export-xdpi="90"
   inkscape:export-ydpi="90">
  <defs
     id="defs1903">
    <inkscape:perspective
       sodipodi:type="inkscape:persp3d"
       inkscape:vp_x="0 : 50 : 1"
       inkscape:vp_y="0 : 1000 : 0"
       inkscape:vp_z="100 : 50 : 1"
       inkscape:persp3d-origin="50 : 33.333333 : 1"
       id="perspective6873" />
  </defs>
  <sodipodi:namedview
     id="base"
     pagecolor="#ffffff"
     bordercolor="#666666"
     borderopacity="1.0"
     inkscape:pageopacity="0.0"
     inkscape:pageshadow="2"
     inkscape:zoom="2.7294322"
     inkscape:cx="60.854922"
     inkscape:cy="32.897372"
     inkscape:document-units="px"
     inkscape:current-layer="layer2"
     gridtolerance="10000"
     inkscape:window-width="1280"
     inkscape:window-height="938"
     inkscape:window-x="-4"
     inkscape:window-y="-4"
     width="100px"
     height="100px"
     showgrid="false"
     inkscape:object-nodes="false"
     objecttolerance="14.6"
     showguides="false"
     inkscape:guide-bbox="true">
    <sodipodi:guide
       orientation="vertical"
       position="50"
       id="guide2163" />
    <sodipodi:guide
       orientation="horizontal"
       position="50"
       id="guide2165" />
    <inkscape:grid
       id="GridFromPre046Settings"
       type="xygrid"
       originx="0px"
       originy="0px"
       spacingx="5px"
       spacingy="5px"
       color="#0000ff"
       empcolor="#0000ff"
       opacity="0.2"
       empopacity="0.4"
       empspacing="5" />
  </sodipodi:namedview>
  <metadata
     id="metadata1906">
    <rdf:RDF>
      <cc:Work
         rdf:about="">
        <dc:format>image/svg+xml</dc:format>
        <dc:type
           rdf:resource="http://purl.org/dc/dcmitype/StillImage" />
      </cc:Work>
    </rdf:RDF>
  </metadata>
  <g
     inkscape:groupmode="layer"
     id="layer2"
     inkscape:label="5"
     style="display:inline">
    <path
       transform="matrix(1.0495858,0,0,1.0495858,-2.0927034,-0.9329396)"
       style="fill:#f2f2f2;fill-opacity:1;stroke:#000000;stroke-width:1.90551364;stroke-linecap:round;stroke-linejoin:round;stroke-opacity:1;display:inline"
       d="M 96.316757,48.526703 C 96.316757,74.296868 75.401841,95.211784 49.631676,95.211784 C 23.861511,95.211784 2.9465942,74.296868 2.9465942,48.526703 C 2.9465942,22.756538 23.861511,1.8416214 49.631676,1.8416214 C 75.401841,1.8416214 96.316757,22.756538 96.316757,48.526703 z"
       id="path2308" />
    <path
       transform="matrix(1.2275618,0,0,1.2632727,-11.06007,-17.096015)"
       style="fill:#f9f9f9;fill-opacity:1;stroke:none;stroke-width:1.5;stroke-linecap:round;stroke-linejoin:round;stroke-opacity:1"
       d="M 86.398964,50.647667 C 86.398964,70.310879 69.976166,86.269428 49.740932,86.269428 C 29.505699,86.269428 13.082901,70.310879 13.082901,50.647667 C 13.082901,30.984455 29.505699,15.025906 49.740932,15.025906 C 69.976166,15.025906 86.398964,30.984455 86.398964,50.647667 z"
       id="path10448" />
    <path
       style="fill:none;fill-rule:evenodd;stroke:#000000;stroke-width:0.99999988px;stroke-linecap:butt;stroke-linejoin:miter;stroke-opacity:1"
       d="M 50.5,49.5 L 92.504075,25.155063"
       id="path2242"
       sodipodi:nodetypes="cc" />
    <path
       id="path2246"
       d="M 49.5,49.5 L 7.1295482,25.521439"
       style="fill:none;fill-rule:evenodd;stroke:#000000;stroke-width:0.99999988px;stroke-linecap:butt;stroke-linejoin:miter;stroke-opacity:1"
       sodipodi:nodetypes="cc" />
    <path
       style="fill:none;fill-rule:evenodd;stroke:#000000;stroke-width:0.99999988px;stroke-linecap:butt;stroke-linejoin:miter;stroke-opacity:1"
       d="M 49.5,50.5 L 7.3127365,74.844937"
       id="path2248"
       sodipodi:nodetypes="cc" />
    <path
       id="path2250"
       d="M 50.5,50.5 L 92.137699,74.112184"
       style="fill:none;fill-rule:evenodd;stroke:#000000;stroke-width:0.99999988px;stroke-linecap:butt;stroke-linejoin:miter;stroke-opacity:1"
       sodipodi:nodetypes="cc" />
    <path
       id="path2252"
       d="M 74.661749,92.137699 L 50.5,50.499998"
       style="fill:none;fill-rule:evenodd;stroke:#000000;stroke-width:0.99999988px;stroke-linecap:butt;stroke-linejoin:miter;stroke-opacity:1"
       sodipodi:nodetypes="cc" />
    <path
       style="fill:none;fill-rule:evenodd;stroke:#000000;stroke-width:0.99999988px;stroke-linecap:butt;stroke-linejoin:miter;stroke-opacity:1"
       d="M 25.521439,92.687263 L 49.5,50.499998"
       id="path2254"
       sodipodi:nodetypes="cc" />
    <path
       style="fill:none;fill-rule:evenodd;stroke:#000000;stroke-width:1px;stroke-linecap:butt;stroke-linejoin:miter;stroke-opacity:1"
       d="M 0.454316,49.999999 L 99.607372,49.999999"
       id="path2258" />
    <path
       id="path2260"
       d="M 50.000003,0.39255262 L 50.000003,99.556681"
       style="fill:none;fill-rule:evenodd;stroke:#000000;stroke-width:1px;stroke-linecap:butt;stroke-linejoin:miter;stroke-opacity:1" />
    <path
       style="opacity:1;fill:#f2f2f2;fill-opacity:1;stroke:none;stroke-width:1.5;stroke-linecap:round;stroke-linejoin:round;stroke-opacity:1"
       d="M 5.15625,46.15625 C 5.04853,47.425563 5,48.702964 5,50 C 5,74.839999 25.16,95 50,95 C 74.84,95 95,74.84 95,50 C 95,48.702964 94.95148,47.425563 94.84375,46.15625 C 92.88835,69.195994 73.54297,87.3125 50,87.3125 C 26.45704,87.3125 7.11165,69.195992 5.15625,46.15625 z "
       id="path9472" />
    <path
       style="fill:none;fill-rule:evenodd;stroke:#000000;stroke-width:0.99999988px;stroke-linecap:butt;stroke-linejoin:miter;stroke-opacity:1"
       d="M 74.844937,8.0454876 L 50.5,49.5"
       id="path2262"
       sodipodi:nodetypes="cc" />
    <path
       id="path2264"
       d="M 25.338251,7.1295462 L 49.5,49.5"
       style="fill:none;fill-rule:evenodd;stroke:#000000;stroke-width:0.99999988px;stroke-linecap:butt;stroke-linejoin:miter;stroke-opacity:1"
       sodipodi:nodetypes="cc" />
    <path
       style="fill:#f9f9f9;fill-opacity:1;stroke:none;stroke-width:1.5;stroke-linecap:round;stroke-linejoin:round;stroke-opacity:1"
       d="M 86.398964,50.647667 C 86.398964,70.310879 69.976166,86.269428 49.740932,86.269428 C 29.505699,86.269428 13.082901,70.310879 13.082901,50.647667 C 13.082901,30.984455 29.505699,15.025906 49.740932,15.025906 C 69.976166,15.025906 86.398964,30.984455 86.398964,50.647667 z"
       id="path2266"
       transform="matrix(1.2275618,0,0,1.2632727,-11.06007,-13.981814)" />
  </g>
  <g
     inkscape:groupmode="layer"
     id="layer3"
     inkscape:label="6"
     style="display:inline" />
  <g
     inkscape:label="Taso 1"
     inkscape:groupmode="layer"
     id="layer1"
     style="opacity:1;display:inline">
    <path
       transform="matrix(1.0495858,0,0,1.0495858,-2.0927034,-0.9329396)"
       style="fill:none;fill-opacity:1;stroke:#000000;stroke-width:1.90551364;stroke-linecap:round;stroke-linejoin:round;stroke-opacity:1"
       d="M 96.316757,48.526703 C 96.316757,74.296868 75.401841,95.211784 49.631676,95.211784 C 23.861511,95.211784 2.9465942,74.296868 2.9465942,48.526703 C 2.9465942,22.756538 23.861511,1.8416214 49.631676,1.8416214 C 75.401841,1.8416214 96.316757,22.756538 96.316757,48.526703 z"
       id="path2157" />
    <path
       style="font-size:12px;font-style:normal;font-weight:normal;fill:#000000;fill-opacity:1;stroke:none;stroke-width:1px;stroke-linecap:butt;stroke-linejoin:miter;stroke-opacity:1;font-family:CC Wild Words"
       d="M 19.017599,72.353065 C 18.72267,72.847208 18.39894,73.249063 18.046408,73.558632 C 17.693862,73.868203 17.317398,74.109414 16.917013,74.282265 C 16.516617,74.455116 16.040055,74.612831 15.487326,74.755409 C 14.928728,74.897987 14.413104,74.969276 13.940451,74.969276 C 13.170918,74.969276 12.579121,74.77787 12.16506,74.395058 C 11.733419,74.012246 11.517599,73.535684 11.517599,72.96537 C 11.517599,72.434122 11.716817,71.882365 12.115255,71.310097 C 12.318379,71.009319 12.606465,70.705609 12.979513,70.398964 C 12.723652,70.277875 12.536153,70.073773 12.417013,69.786659 C 12.264668,69.417524 12.188497,69.04936 12.188498,68.682167 C 12.188497,68.231002 12.304707,67.822799 12.53713,67.457558 C 12.898457,66.883347 13.273945,66.455613 13.663595,66.174355 C 14.053241,65.893113 14.585955,65.648973 15.26174,65.441933 C 15.546892,65.354051 15.826188,65.310106 16.09963,65.310097 C 16.423844,65.310106 16.728043,65.369188 17.012228,65.487343 C 17.296402,65.605516 17.535659,65.78032 17.730001,66.011757 C 17.924331,66.243211 18.057631,66.524949 18.129904,66.856972 C 18.129897,67.216354 18.065932,67.59819 17.938009,68.00248 C 17.810073,68.406783 17.625991,68.772993 17.385763,69.101112 C 18.057631,69.210493 18.525404,69.490766 18.789083,69.941933 C 19.132826,70.512249 19.3047,70.996624 19.304708,71.395058 C 19.3047,71.717326 19.208997,72.036662 19.017599,72.353065 L 19.017599,72.353065 z M 17.145529,67.135292 C 16.852555,66.799362 16.463883,66.631394 15.979513,66.631386 C 15.622087,66.631394 15.255876,66.71782 14.88088,66.890663 C 14.505877,67.063522 14.192401,67.269089 13.940451,67.507362 C 13.913104,67.560104 13.822284,67.67485 13.66799,67.851601 C 13.513691,68.028365 13.390644,68.194381 13.298849,68.349648 C 13.20705,68.504927 13.161152,68.675337 13.161154,68.860878 C 13.249042,69.165571 13.537128,69.317915 14.025412,69.317909 C 14.074237,69.317915 14.242206,69.306196 14.529318,69.282753 C 15.300798,69.214399 15.90822,68.95854 16.351583,68.515175 C 16.61525,68.251509 16.813492,68.025435 16.94631,67.836952 C 17.079117,67.648483 17.145523,67.414596 17.145529,67.135292 L 17.145529,67.135292 z M 17.971701,70.72123 C 17.883803,70.527874 17.765151,70.397503 17.615744,70.330116 C 17.466323,70.262738 17.269546,70.229047 17.025412,70.229042 C 16.89064,70.229047 16.686539,70.237836 16.413107,70.255409 C 16.073258,70.271039 15.635759,70.364789 15.100607,70.536659 C 14.565447,70.708538 14.072772,70.937542 13.62258,71.223671 C 13.172382,71.509807 12.886738,71.822795 12.765646,72.162636 C 12.724629,72.330607 12.704121,72.462443 12.704123,72.558144 C 12.704121,72.728067 12.74123,72.871134 12.815451,72.987343 C 12.889668,73.103555 12.986836,73.194376 13.106955,73.259804 C 13.22707,73.325235 13.364765,73.377969 13.520041,73.418007 C 13.675312,73.458047 13.807636,73.491739 13.917013,73.519081 C 14.077167,73.534707 14.241229,73.54252 14.409201,73.542519 C 14.893572,73.54252 15.383806,73.476114 15.879904,73.3433 C 16.375992,73.210489 16.793961,72.977091 17.13381,72.643105 C 17.377945,72.398966 17.582534,72.124064 17.74758,71.818398 C 17.912612,71.512737 17.995131,71.227092 17.995138,70.961464 C 17.995131,70.85014 17.987319,70.770062 17.971701,70.72123 L 17.971701,70.72123 z"
       id="text2159" />
    <path
       style="font-size:12px;font-style:normal;font-weight:normal;fill:#000000;fill-opacity:1;stroke:none;stroke-width:1px;stroke-linecap:butt;stroke-linejoin:miter;stroke-opacity:1;font-family:CC Wild Words"
       d="M 47.219307,5.9224014 C 47.250554,6.1665506 47.266179,6.4185034 47.266182,6.6782608 C 47.266179,6.8970186 47.249089,7.2207487 47.214912,7.6494522 C 47.18073,8.0781698 47.15778,8.4624467 47.146065,8.8022842 C 47.136296,9.0405711 47.113347,9.391645 47.077217,9.8555069 C 47.041081,10.319378 47.017644,10.636761 47.006905,10.807655 C 46.99616,10.978557 46.990788,11.201702 46.990791,11.477089 C 46.990788,11.516155 46.992742,11.578655 46.996651,11.664589 C 47.000554,11.750529 47.002507,11.815959 47.00251,11.860878 C 47.018132,12.608927 47.046452,13.429239 47.087471,14.321815 C 47.06989,14.522988 47.02448,14.659218 46.951241,14.730507 C 46.877996,14.801796 46.738836,14.83744 46.53376,14.83744 C 46.451726,14.829628 46.36823,14.820351 46.283272,14.809608 C 46.198309,14.798866 46.122137,14.776894 46.054756,14.74369 C 45.987371,14.710487 45.930731,14.656776 45.884834,14.582558 C 45.838934,14.508339 45.807196,14.401894 45.789619,14.263222 C 45.795477,13.696816 45.80329,12.980509 45.813057,12.114296 C 45.822821,11.248088 45.835516,9.9917421 45.851143,8.345253 L 45.851143,7.2290421 C 45.599188,7.3423306 45.414618,7.3989712 45.297432,7.3989639 C 45.186103,7.3989712 45.089911,7.3657681 45.008858,7.2993546 C 44.927802,7.2329558 44.824775,7.1177215 44.699776,6.9536514 C 44.578681,6.7856906 44.518135,6.6499485 44.518135,6.5464249 C 44.518135,6.4448706 44.56208,6.3623512 44.649971,6.2988663 C 44.737861,6.2353982 44.894599,6.1558084 45.120186,6.0600967 C 45.345771,5.9644023 45.531317,5.8784649 45.676826,5.8022842 C 45.822333,5.7261213 45.960516,5.6216292 46.091377,5.4888077 C 46.204656,5.3774889 46.332586,5.3218249 46.475166,5.3218155 C 46.648992,5.3218249 46.812078,5.3872545 46.964424,5.5181046 C 47.116765,5.648973 47.201726,5.7837385 47.219307,5.9224014 L 47.219307,5.9224014 z M 55.108955,7.7212296 C 55.042542,8.1743611 54.928284,8.5688919 54.766182,8.9048233 C 54.604066,9.2407662 54.401429,9.5327581 54.158272,9.7807999 C 53.915102,10.028851 53.661684,10.243695 53.398018,10.425331 C 53.134341,10.606976 52.744693,10.857952 52.229073,11.178261 C 51.895084,11.387248 51.588932,11.59428 51.310616,11.799355 C 51.032292,12.004435 50.787175,12.216837 50.575264,12.436562 C 50.363347,12.65629 50.190008,12.8892 50.055244,13.135292 C 50.486882,12.908731 51.037663,12.73588 51.707588,12.616737 C 52.377506,12.497599 53.023013,12.438029 53.644112,12.438026 C 54.183168,12.438029 54.555238,12.478068 54.760323,12.558144 C 54.87555,12.595255 54.996155,12.713907 55.122139,12.914101 C 55.248108,13.114298 55.311096,13.307168 55.311104,13.492714 C 55.311096,13.813027 55.095276,13.973183 54.663643,13.973183 C 54.519105,13.973183 54.4068,13.965371 54.326729,13.949745 C 54.047426,13.910683 53.755434,13.891152 53.450752,13.891151 C 52.923403,13.891152 52.327701,13.946816 51.663643,14.058144 C 51.464421,14.0933 51.267643,14.149941 51.073311,14.228065 C 50.878972,14.306191 50.649968,14.40873 50.386299,14.535683 C 50.122625,14.662636 49.918035,14.754921 49.77253,14.812538 C 49.62702,14.870155 49.497626,14.898964 49.384346,14.898964 C 49.308173,14.898964 49.24372,14.882362 49.190987,14.849159 C 48.991767,14.737831 48.769599,14.51664 48.524483,14.185585 C 48.279365,13.854531 48.146065,13.564004 48.12458,13.314003 C 48.192939,12.978067 48.454658,12.573282 48.909737,12.099648 C 49.364813,11.626018 49.862371,11.177776 50.402412,10.754921 C 50.942448,10.332074 51.351139,10.032758 51.628487,9.8569717 C 53.173403,8.8745557 54.013246,8.1392048 54.148018,7.6509171 C 54.163637,7.5845179 54.171449,7.5366664 54.171455,7.5073624 C 54.171449,7.3862759 54.125551,7.2886198 54.03376,7.2143936 C 53.941957,7.1401824 53.827211,7.0864715 53.689522,7.0532608 C 53.551821,7.0200653 53.406313,6.9971161 53.252998,6.9844131 C 53.099673,6.9717255 52.981997,6.9614716 52.899971,6.9536514 C 52.73981,6.9380342 52.615787,6.9302217 52.527901,6.9302139 C 52.176334,6.9302217 51.806705,6.9844208 51.419014,7.0928116 C 51.031316,7.2012175 50.633855,7.37944 50.226631,7.6274796 C 49.819403,7.8755332 49.42243,8.1987751 49.035713,8.5972061 C 48.943915,8.6382278 48.863837,8.6587356 48.795479,8.6587296 C 48.635322,8.6587356 48.501533,8.5869583 48.394112,8.4433975 C 48.286689,8.2998492 48.232978,8.1675251 48.232979,8.0464249 C 48.232978,7.7144006 48.279365,7.4512173 48.372139,7.2568741 C 48.464912,7.0625458 48.626533,6.8892061 48.857002,6.7368546 C 49.292548,6.4478003 49.710516,6.2139138 50.110909,6.0351944 C 50.511297,5.8564923 50.90778,5.7270979 51.300362,5.6470108 C 51.692936,5.5669418 52.094303,5.5269028 52.504463,5.5268936 C 52.877505,5.5269028 53.297427,5.5591293 53.764229,5.6235733 C 54.088441,5.7017073 54.393617,5.9390117 54.679756,6.3354874 C 54.965882,6.7319797 55.108948,7.1938933 55.108955,7.7212296 L 55.108955,7.7212296 z"
       id="text2167" />
    <path
       style="font-size:12px;font-style:normal;font-weight:normal;fill:#000000;fill-opacity:1;stroke:none;stroke-width:1px;stroke-linecap:butt;stroke-linejoin:miter;stroke-opacity:1;font-family:CC Wild Words"
       d="M 29.371769,11.322401 C 29.403016,11.56655 29.418641,11.818503 29.418644,12.07826 C 29.418641,12.297018 29.401551,12.620748 29.367374,13.049452 C 29.333192,13.478169 29.310242,13.862446 29.298527,14.202284 C 29.288758,14.440571 29.265809,14.791645 29.229679,15.255507 C 29.193543,15.719378 29.170106,16.036761 29.159367,16.207655 C 29.148622,16.378557 29.14325,16.601701 29.143253,16.877089 C 29.14325,16.916154 29.145204,16.978654 29.149113,17.064589 C 29.153016,17.150529 29.154969,17.215959 29.154972,17.260878 C 29.170594,18.008927 29.198914,18.829238 29.239933,19.721815 C 29.222352,19.922987 29.176942,20.059217 29.103703,20.130507 C 29.030458,20.201795 28.891298,20.23744 28.686222,20.23744 C 28.604188,20.229627 28.520692,20.22035 28.435734,20.209608 C 28.350771,20.198866 28.274599,20.176893 28.207218,20.14369 C 28.139833,20.110487 28.083193,20.056776 28.037296,19.982557 C 27.991396,19.908339 27.959658,19.801894 27.942081,19.663221 C 27.947939,19.096816 27.955752,18.380508 27.965519,17.514296 C 27.975283,16.648088 27.987978,15.391742 28.003605,13.745253 L 28.003605,12.629042 C 27.75165,12.74233 27.56708,12.798971 27.449894,12.798964 C 27.338565,12.798971 27.242373,12.765768 27.16132,12.699354 C 27.080264,12.632955 26.977237,12.517721 26.852238,12.353651 C 26.731143,12.18569 26.670597,12.049948 26.670597,11.946424 C 26.670597,11.84487 26.714542,11.762351 26.802433,11.698866 C 26.890323,11.635398 27.047061,11.555808 27.272648,11.460096 C 27.498233,11.364402 27.683779,11.278465 27.829288,11.202284 C 27.974795,11.126121 28.112978,11.021629 28.243839,10.888807 C 28.357118,10.777488 28.485048,10.721824 28.627628,10.721815 C 28.801454,10.721824 28.96454,10.787254 29.116886,10.918104 C 29.269227,11.048973 29.354188,11.183738 29.371769,11.322401 L 29.371769,11.322401 z M 33.145206,11.322401 C 33.176453,11.56655 33.192078,11.818503 33.192081,12.07826 C 33.192078,12.297018 33.174988,12.620748 33.140812,13.049452 C 33.106629,13.478169 33.08368,13.862446 33.071964,14.202284 C 33.062196,14.440571 33.039246,14.791645 33.003117,15.255507 C 32.966981,15.719378 32.943543,16.036761 32.932804,16.207655 C 32.922059,16.378557 32.916688,16.601701 32.916691,16.877089 C 32.916688,16.916154 32.918641,16.978654 32.92255,17.064589 C 32.926454,17.150529 32.928407,17.215959 32.92841,17.260878 C 32.944032,18.008927 32.972352,18.829238 33.013371,19.721815 C 32.995789,19.922987 32.950379,20.059217 32.87714,20.130507 C 32.803895,20.201795 32.664735,20.23744 32.45966,20.23744 C 32.377626,20.229627 32.29413,20.22035 32.209171,20.209608 C 32.124208,20.198866 32.048036,20.176893 31.980656,20.14369 C 31.913271,20.110487 31.85663,20.056776 31.810734,19.982557 C 31.764834,19.908339 31.733095,19.801894 31.715519,19.663221 C 31.721377,19.096816 31.729189,18.380508 31.738956,17.514296 C 31.74872,16.648088 31.761416,15.391742 31.777042,13.745253 L 31.777042,12.629042 C 31.525088,12.74233 31.340518,12.798971 31.223331,12.798964 C 31.112002,12.798971 31.015811,12.765768 30.934757,12.699354 C 30.853702,12.632955 30.750674,12.517721 30.625675,12.353651 C 30.504581,12.18569 30.444034,12.049948 30.444035,11.946424 C 30.444034,11.84487 30.487979,11.762351 30.575871,11.698866 C 30.663761,11.635398 30.820499,11.555808 31.046085,11.460096 C 31.27167,11.364402 31.457217,11.278465 31.602726,11.202284 C 31.748232,11.126121 31.886416,11.021629 32.017277,10.888807 C 32.130556,10.777488 32.258485,10.721824 32.401066,10.721815 C 32.574891,10.721824 32.737977,10.787254 32.890324,10.918104 C 33.042664,11.048973 33.127625,11.183738 33.145206,11.322401 L 33.145206,11.322401 z"
       id="text2171" />
    <path
       style="font-size:12px;font-style:normal;font-weight:normal;fill:#000000;fill-opacity:1;stroke:none;stroke-width:1px;stroke-linecap:butt;stroke-linejoin:miter;stroke-opacity:1;font-family:CC Wild Words"
       d="M 12.207132,25.922401 C 12.238379,26.166551 12.254004,26.418503 12.254007,26.678261 C 12.254004,26.897019 12.236914,27.220749 12.202738,27.649452 C 12.168555,28.07817 12.145606,28.462447 12.13389,28.802284 C 12.124122,29.040571 12.101172,29.391645 12.065042,29.855507 C 12.028907,30.319378 12.005469,30.636761 11.99473,30.807655 C 11.983985,30.978557 11.978614,31.201702 11.978617,31.477089 C 11.978614,31.516155 11.980567,31.578655 11.984476,31.664589 C 11.988379,31.750529 11.990333,31.815959 11.990335,31.860878 C 12.005958,32.608927 12.034278,33.429239 12.075296,34.321815 C 12.057715,34.522988 12.012305,34.659218 11.939066,34.730507 C 11.865821,34.801796 11.726661,34.83744 11.521585,34.83744 C 11.439552,34.829628 11.356056,34.820351 11.271097,34.809608 C 11.186134,34.798866 11.109962,34.776894 11.042582,34.74369 C 10.975197,34.710487 10.918556,34.656776 10.87266,34.582558 C 10.82676,34.508339 10.795021,34.401894 10.777445,34.263222 C 10.783303,33.696816 10.791115,32.980509 10.800882,32.114296 C 10.810646,31.248088 10.823342,29.991742 10.838968,28.345253 L 10.838968,27.229042 C 10.587014,27.342331 10.402444,27.398971 10.285257,27.398964 C 10.173928,27.398971 10.077737,27.365768 9.9966831,27.299355 C 9.9156276,27.232956 9.8126004,27.117721 9.6876011,26.953651 C 9.5665069,26.785691 9.5059601,26.649949 9.5059605,26.546425 C 9.5059601,26.444871 9.5499053,26.362351 9.6377964,26.298866 C 9.7256864,26.235398 9.8824245,26.155808 10.108011,26.060097 C 10.333596,25.964402 10.519143,25.878465 10.664652,25.802284 C 10.810158,25.726121 10.948341,25.621629 11.079203,25.488808 C 11.192482,25.377489 11.320411,25.321825 11.462992,25.321815 C 11.636817,25.321825 11.799903,25.387254 11.95225,25.518105 C 12.10459,25.648973 12.189551,25.783738 12.207132,25.922401 L 12.207132,25.922401 z M 21.22471,30.589394 C 20.980562,31.171428 20.721773,31.665569 20.448343,32.071815 C 20.174898,32.478068 19.887789,32.814981 19.587015,33.082558 C 19.286227,33.350137 18.970798,33.571817 18.640726,33.747597 C 18.310643,33.923379 17.923924,34.095254 17.48057,34.263222 C 16.871191,34.485878 16.319434,34.597206 15.825296,34.597206 C 15.018654,34.597206 14.394631,34.309121 13.953226,33.732948 C 13.488382,33.113809 13.25596,32.382365 13.25596,31.538612 C 13.25596,30.716351 13.467874,29.867719 13.891703,28.992714 C 14.147561,28.46733 14.474221,27.967818 14.871683,27.494179 C 15.269142,27.020554 15.707618,26.620652 16.187113,26.294472 C 16.666601,25.968309 17.157323,25.744676 17.659281,25.623573 C 18.014744,25.533739 18.358494,25.488817 18.690531,25.488808 C 19.210056,25.488817 19.671481,25.60161 20.074808,25.827187 C 20.478121,26.052781 20.785249,26.41655 20.996195,26.918495 C 21.347749,27.768111 21.52353,28.499556 21.523539,29.112831 C 21.52353,29.616742 21.423921,30.108929 21.22471,30.589394 L 21.22471,30.589394 z M 20.442484,27.961464 C 20.25693,27.281784 19.641696,26.94194 18.596781,26.941933 C 18.413181,26.94194 18.176854,26.957565 17.887796,26.988808 C 17.588964,27.016159 17.258397,27.106491 16.896097,27.259804 C 16.533789,27.413131 16.179297,27.62651 15.832621,27.89994 C 15.485938,28.173384 15.182228,28.508833 14.921488,28.906288 C 14.660744,29.303754 14.481545,29.748578 14.38389,30.240761 C 14.352639,30.391156 14.337014,30.560101 14.337015,30.747597 C 14.337014,31.089397 14.399025,31.414104 14.52305,31.721718 C 14.647072,32.029338 14.807228,32.288126 15.003519,32.498085 C 15.199806,32.708048 15.405372,32.852091 15.620218,32.930214 C 15.780372,32.969278 15.97666,32.988809 16.209085,32.988808 C 16.769628,32.988809 17.349218,32.85795 17.947855,32.59623 C 18.546482,32.334513 19.04697,31.890178 19.44932,31.263222 C 20.144625,30.187054 20.492281,29.250532 20.492289,28.453651 C 20.492281,28.340377 20.475679,28.176314 20.442484,27.961464 L 20.442484,27.961464 z"
       id="text2175" />
    <path
       style="font-size:12px;font-style:normal;font-weight:normal;fill:#000000;fill-opacity:1;stroke:none;stroke-width:1px;stroke-linecap:butt;stroke-linejoin:miter;stroke-opacity:1;font-family:CC Wild Words"
       d="M 13.262066,47.205605 C 13.461277,47.756393 13.560887,48.360884 13.560894,49.019081 C 13.560887,50.333539 13.169286,51.568889 12.386089,52.725136 C 11.942724,53.385293 11.403174,53.881387 10.767437,54.213417 C 10.131691,54.545448 9.5032736,54.730019 8.8821831,54.767128 C 8.8489774,54.767128 8.803079,54.769081 8.7444878,54.772987 C 8.6858916,54.776894 8.6438995,54.778847 8.6185112,54.778847 C 7.6087443,54.778847 7.103862,54.378456 7.1038628,53.577675 C 7.1097213,53.464395 7.1546432,53.338907 7.2386284,53.20121 C 7.3226117,53.063516 7.425639,52.945841 7.5477104,52.848183 C 7.6697794,52.750528 7.7864785,52.7017 7.8978081,52.701698 C 8.0657751,52.7017 8.1897984,52.821817 8.2698784,53.06205 C 8.4964387,53.237833 8.7405791,53.325723 9.0023003,53.325722 C 9.0608913,53.325723 9.2200708,53.306192 9.4798393,53.267128 C 9.9681169,53.065958 10.363136,52.868204 10.664898,52.673866 C 10.966651,52.479533 11.215186,52.257853 11.410503,52.008827 C 11.605811,51.759807 11.771826,51.464397 11.90855,51.122597 C 12.045263,50.780804 12.180029,50.34721 12.312847,49.821815 C 12.084326,50.161664 11.81333,50.44389 11.499859,50.668495 C 11.186377,50.893108 10.855323,51.070843 10.506695,51.201698 C 10.158058,51.332561 9.7806171,51.444866 9.3743706,51.538612 C 9.0833522,51.595256 8.8392118,51.623576 8.6419487,51.623573 C 8.2161655,51.623576 7.8333534,51.536174 7.4935112,51.361366 C 7.1536666,51.186565 6.9085497,50.913616 6.7581596,50.542519 C 6.5823781,50.120648 6.4944876,49.69682 6.4944878,49.271034 C 6.4944876,48.753462 6.6263234,48.293502 6.8899956,47.891151 C 7.3196821,47.205612 7.750834,46.687058 8.1834526,46.335487 C 8.6160675,45.983934 9.2005396,45.693895 9.9368706,45.46537 C 10.194679,45.385301 10.463234,45.345262 10.742535,45.345253 C 11.103858,45.345262 11.453955,45.421434 11.792828,45.573769 C 12.131689,45.726121 12.428564,45.943406 12.683453,46.225624 C 12.938329,46.507859 13.1312,46.834519 13.262066,47.205605 L 13.262066,47.205605 z M 12.181011,47.457558 C 11.800146,47.018112 11.315772,46.798386 10.727886,46.798378 C 10.452491,46.798386 10.167335,46.848679 9.8724174,46.949257 C 9.5774923,47.04985 9.3025902,47.18071 9.0477104,47.341835 C 8.7928251,47.502975 8.5657746,47.682174 8.3665581,47.879433 C 8.3489779,47.910689 8.2566928,48.027877 8.0897026,48.230995 C 7.9227088,48.434126 7.7889199,48.638228 7.6883354,48.8433 C 7.5877482,49.048384 7.5374553,49.27104 7.5374565,49.511269 C 7.6546427,49.935101 8.0384313,50.147015 8.6888237,50.147011 C 8.8021024,50.147015 8.9466336,50.139203 9.1224174,50.123573 C 9.4856955,50.082562 9.8758318,49.986371 10.292828,49.834999 C 10.709815,49.683637 11.08335,49.442914 11.413433,49.112831 C 11.659521,48.866743 11.848974,48.621138 11.981792,48.376015 C 12.114599,48.130904 12.181005,47.824752 12.181011,47.457558 L 12.181011,47.457558 z"
       id="text2183" />
    <path
       style="font-size:12px;font-style:normal;font-weight:normal;fill:#000000;fill-opacity:1;stroke:none;stroke-width:1px;stroke-linecap:butt;stroke-linejoin:miter;stroke-opacity:1;font-family:CC Wild Words"
       d="M 53.038158,89.666542 C 53.213932,90.094281 53.301823,90.518109 53.30183,90.938026 C 53.301823,91.451702 53.169987,91.911662 52.906322,92.317909 C 52.625066,92.76713 52.341863,93.136758 52.056713,93.426796 C 51.771551,93.716836 51.450751,93.959023 51.094311,94.153358 C 50.737861,94.347695 50.305732,94.523964 49.797924,94.682167 C 49.475655,94.785683 49.14753,94.83744 48.813549,94.83744 C 48.313547,94.83744 47.875071,94.701698 47.498119,94.430214 C 47.121165,94.15873 46.839915,93.762246 46.654369,93.240761 C 46.478588,92.725138 46.390697,92.201701 46.390697,91.670448 C 46.390697,90.441937 46.810619,89.20561 47.650463,87.961464 C 47.978586,87.475143 48.325754,87.046921 48.691967,86.676796 C 49.058175,86.306687 49.431221,86.01323 49.811108,85.796425 C 50.190986,85.579637 50.558662,85.461473 50.914135,85.441933 C 50.949286,85.441942 50.995185,85.439989 51.05183,85.436073 C 51.108466,85.432176 51.150458,85.430223 51.177807,85.430214 C 52.185613,85.430223 52.689519,85.830613 52.689526,86.631386 C 52.68366,86.805222 52.592839,86.994675 52.417065,87.199745 C 52.241277,87.404831 52.068426,87.50737 51.89851,87.507362 C 51.730536,87.50737 51.606512,87.387252 51.52644,87.147011 C 51.3487,87.0103 51.160224,86.94194 50.96101,86.941933 C 50.869208,86.94194 50.747138,86.960495 50.594799,86.997597 C 50.442451,87.034714 50.348701,87.056198 50.313549,87.06205 C 49.669014,87.41362 49.162179,87.780318 48.793041,88.162148 C 48.423898,88.54399 48.151438,88.93022 47.975658,89.320839 C 47.799875,89.711469 47.635813,90.187054 47.483471,90.747597 C 47.715891,90.399945 48.002024,90.088422 48.341869,89.813026 C 48.68171,89.537641 49.042062,89.309126 49.422924,89.12748 C 49.80378,88.945845 50.176826,88.813032 50.542065,88.729042 C 50.82331,88.666548 51.086981,88.635298 51.33308,88.635292 C 52.188543,88.635298 52.756902,88.979048 53.038158,89.666542 L 53.038158,89.666542 z M 52.258862,90.697792 C 52.141668,90.273968 51.757879,90.062054 51.107494,90.06205 C 50.994208,90.062054 50.849677,90.069867 50.673901,90.085487 C 50.382881,90.114789 50.01374,90.247113 49.566479,90.48246 C 49.11921,90.717816 48.714914,91.058147 48.353588,91.503456 C 47.992258,91.948771 47.786204,92.483927 47.735424,93.108925 C 48.003,93.356973 48.330148,93.480996 48.716869,93.480995 C 49.062569,93.480996 49.430733,93.392618 49.821362,93.215858 C 50.211982,93.039102 50.582587,92.821329 50.933178,92.562538 C 51.283759,92.303751 51.588934,92.046428 51.848705,91.790565 C 51.879949,91.737834 51.939031,91.664592 52.025951,91.570839 C 52.112859,91.477092 52.177312,91.38969 52.219311,91.308632 C 52.261297,91.227581 52.282293,91.115764 52.282299,90.973183 C 52.282293,90.861858 52.27448,90.770062 52.258862,90.697792 L 52.258862,90.697792 z"
       id="text2187" />
    <path
       style="font-size:12px;font-style:normal;font-weight:normal;fill:#000000;fill-opacity:1;stroke:none;stroke-width:1px;stroke-linecap:butt;stroke-linejoin:miter;stroke-opacity:1;font-family:CC Wild Words"
       d="M 93.720779,50.747597 C 93.841865,50.944866 93.902412,51.196819 93.90242,51.503456 C 93.896553,51.901896 93.779854,52.300333 93.552322,52.698769 C 93.324776,53.097208 93.009835,53.41459 92.607498,53.650917 C 92.158273,53.916543 91.762766,54.129922 91.420975,54.291054 C 91.079173,54.452187 90.701244,54.589394 90.287186,54.702675 C 89.873119,54.815956 89.39851,54.904823 88.863358,54.969276 C 88.654371,54.994667 88.465894,55.007362 88.297928,55.007362 C 87.774489,55.007362 87.414137,54.851112 87.216873,54.538612 C 87.017653,54.230019 86.918044,53.97416 86.918045,53.771034 C 86.918044,53.562051 87.030349,53.457559 87.254959,53.457558 C 87.288161,53.457559 87.351637,53.465371 87.445389,53.480995 C 88.025465,53.480996 88.637769,53.421914 89.282303,53.303749 C 89.92683,53.185587 90.506908,53.01713 91.022537,52.798378 C 91.692453,52.511271 92.240304,52.17924 92.666092,51.802284 C 92.826241,51.65385 92.906319,51.510295 92.906326,51.37162 C 92.906319,51.217327 92.807687,51.092327 92.610428,50.99662 C 92.413156,50.900921 92.115305,50.853069 91.716873,50.853065 C 91.69343,50.853069 91.649485,50.855022 91.585037,50.858925 C 91.520579,50.862835 91.468821,50.864788 91.429764,50.864784 C 90.826243,50.901897 90.425853,50.929729 90.228592,50.94828 C 90.031322,50.966839 89.80769,51.002972 89.557693,51.056679 C 89.30769,51.110393 88.963941,51.198772 88.526443,51.321815 C 88.276441,51.321819 88.087965,51.246135 87.961014,51.094765 C 87.834059,50.943401 87.770582,50.759319 87.770584,50.542519 C 87.770582,50.171429 87.906324,49.91557 88.177811,49.77494 C 88.44148,49.712445 88.734937,49.648481 89.058182,49.583046 C 89.381421,49.517621 89.602124,49.46684 89.720291,49.430702 C 89.838451,49.394575 90.076244,49.305219 90.43367,49.162636 C 90.703197,49.05522 91.021556,48.887251 91.388748,48.65873 C 91.75593,48.43022 92.070383,48.192427 92.332108,47.945351 C 92.59382,47.698287 92.724679,47.487838 92.724686,47.314003 C 92.724679,47.25151 92.709054,47.199753 92.677811,47.15873 C 92.61921,47.078659 92.47175,47.010788 92.235428,46.955116 C 91.999094,46.89946 91.711008,46.871628 91.37117,46.87162 C 90.73054,46.871628 90.044506,46.974655 89.313065,47.180702 C 88.581617,47.386764 87.895582,47.715377 87.254959,48.166542 C 87.149489,48.238814 87.033278,48.274947 86.906326,48.27494 C 86.627029,48.274947 86.466873,48.099166 86.425858,47.747597 C 86.425857,47.372604 86.497146,47.100632 86.639725,46.931679 C 86.782302,46.762741 86.98738,46.622605 87.254959,46.511269 C 87.284255,46.497605 87.468337,46.403855 87.807205,46.230019 C 88.14607,46.056199 88.455152,45.920945 88.734451,45.824257 C 89.013745,45.727586 89.343823,45.651903 89.724686,45.597206 C 90.302806,45.517137 90.771556,45.477098 91.130936,45.477089 C 91.738352,45.477098 92.261789,45.573778 92.701248,45.767128 C 93.013741,45.901902 93.257882,46.11284 93.43367,46.39994 C 93.609444,46.687058 93.697334,46.999558 93.697342,47.33744 C 93.697334,47.698776 93.597725,48.0269 93.398514,48.321815 C 93.255928,48.5269 93.110909,48.708052 92.963455,48.865273 C 92.815987,49.022505 92.658273,49.175825 92.490311,49.325233 C 92.322336,49.474653 92.157297,49.620649 91.995193,49.763222 C 92.182687,49.788617 92.365304,49.814496 92.543045,49.840858 C 92.720773,49.86723 92.867745,49.905316 92.983963,49.955116 C 93.100167,50.004926 93.218331,50.090863 93.338455,50.212929 C 93.458565,50.335003 93.586006,50.513226 93.720779,50.747597 L 93.720779,50.747597 z"
       id="text2191" />
    <path
       style="font-size:12px;font-style:normal;font-weight:normal;fill:#000000;fill-opacity:1;stroke:none;stroke-width:1px;stroke-linecap:butt;stroke-linejoin:miter;stroke-opacity:1;font-family:CC Wild Words"
       d="M 71.081741,11.322401 C 71.112988,11.56655 71.128613,11.818503 71.128616,12.07826 C 71.128613,12.297018 71.111523,12.620748 71.077347,13.049452 C 71.043164,13.478169 71.020215,13.862446 71.008499,14.202284 C 70.998731,14.440571 70.975781,14.791645 70.939651,15.255507 C 70.903516,15.719378 70.880078,16.036761 70.869339,16.207655 C 70.858594,16.378557 70.853223,16.601701 70.853226,16.877089 C 70.853223,16.916154 70.855176,16.978654 70.859085,17.064589 C 70.862988,17.150529 70.864942,17.215959 70.864944,17.260878 C 70.880567,18.008927 70.908887,18.829238 70.949905,19.721815 C 70.932324,19.922987 70.886914,20.059217 70.813675,20.130507 C 70.74043,20.201795 70.60127,20.23744 70.396194,20.23744 C 70.314161,20.229627 70.230665,20.22035 70.145706,20.209608 C 70.060743,20.198866 69.984571,20.176893 69.917191,20.14369 C 69.849806,20.110487 69.793165,20.056776 69.747269,19.982557 C 69.701369,19.908339 69.66963,19.801894 69.652054,19.663221 C 69.657912,19.096816 69.665724,18.380508 69.675491,17.514296 C 69.685255,16.648088 69.697951,15.391742 69.713577,13.745253 L 69.713577,12.629042 C 69.461623,12.74233 69.277053,12.798971 69.159866,12.798964 C 69.048537,12.798971 68.952346,12.765768 68.871292,12.699354 C 68.790237,12.632955 68.687209,12.517721 68.56221,12.353651 C 68.441116,12.18569 68.380569,12.049948 68.380569,11.946424 C 68.380569,11.84487 68.424514,11.762351 68.512405,11.698866 C 68.600295,11.635398 68.757034,11.555808 68.98262,11.460096 C 69.208205,11.364402 69.393752,11.278465 69.539261,11.202284 C 69.684767,11.126121 69.82295,11.021629 69.953812,10.888807 C 70.067091,10.777488 70.19502,10.721824 70.337601,10.721815 C 70.511426,10.721824 70.674512,10.787254 70.826859,10.918104 C 70.979199,11.048973 71.06416,11.183738 71.081741,11.322401 L 71.081741,11.322401 z"
       id="text2195" />
    <path
       style="font-size:12px;font-style:normal;font-weight:normal;fill:#000000;fill-opacity:1;stroke:none;stroke-width:1px;stroke-linecap:butt;stroke-linejoin:miter;stroke-opacity:1;font-family:CC Wild Words"
       d="M 73.146553,85.154236 C 73.203187,85.34174 73.231507,85.545841 73.231514,85.766541 C 73.231507,86.170841 73.138733,86.57709 72.953194,86.985291 C 72.76764,87.393496 72.540101,87.723573 72.270576,87.975525 C 71.790102,88.418885 71.254458,88.753357 70.663643,88.978943 C 70.072819,89.204529 69.467839,89.317322 68.848701,89.317322 C 68.126043,89.317322 67.44245,89.165955 66.79792,88.86322 C 66.526435,88.646424 66.390693,88.362245 66.390694,88.010681 C 66.390693,87.748964 66.462959,87.476503 66.607491,87.193298 C 66.683662,87.050722 66.754951,86.979433 66.821358,86.979431 C 66.870185,86.979433 66.917548,87.00873 66.963448,87.067322 C 67.009345,87.125918 67.06745,87.210879 67.137764,87.322205 C 67.208075,87.433535 67.273993,87.51996 67.335518,87.581482 C 67.39704,87.643007 67.465888,87.677675 67.542061,87.685486 C 67.907293,87.886659 68.279363,87.987245 68.658272,87.987244 C 69.033269,87.987245 69.489323,87.882753 70.026436,87.673767 C 70.60065,87.447206 71.091372,87.151797 71.498604,86.787537 C 71.905825,86.423282 72.134828,86.050723 72.185616,85.669861 C 72.17975,85.462833 72.099184,85.332951 71.943916,85.280212 C 71.788637,85.227482 71.521548,85.189396 71.142647,85.165955 C 71.021548,85.158146 70.849673,85.15424 70.627022,85.154236 C 70.060612,85.15424 69.577214,85.217716 69.176826,85.344666 C 68.776433,85.471622 68.219793,85.704044 67.506905,86.041931 C 67.307685,86.041934 67.070868,85.896427 66.796455,85.605408 C 66.522041,85.314396 66.354561,85.059513 66.294014,84.840759 C 66.294014,84.565373 66.360908,84.117132 66.494698,83.496033 C 66.628486,82.874945 66.784736,82.298286 66.963448,81.766052 C 67.142157,81.233834 67.291083,80.931588 67.410225,80.859314 C 67.568427,80.769479 67.752997,80.703561 67.963936,80.66156 C 68.174871,80.619577 68.477117,80.581491 68.870674,80.547302 C 69.264226,80.513131 69.517643,80.489206 69.630928,80.475525 C 69.787174,80.457956 70.057682,80.422799 70.442451,80.370056 C 70.827212,80.317331 71.133853,80.279733 71.362373,80.257263 C 71.590883,80.234811 71.821352,80.223581 72.05378,80.223572 C 72.403383,80.223581 72.710999,80.254831 72.976631,80.317322 C 73.169983,80.362253 73.266663,80.514596 73.26667,80.774353 C 73.266663,81.069283 73.174866,81.372994 72.99128,81.685486 C 72.89557,81.84565 72.819398,81.925728 72.762764,81.92572 C 72.737367,81.925728 72.687562,81.898384 72.61335,81.843689 C 72.539125,81.789009 72.454164,81.740181 72.358467,81.697205 C 72.262758,81.654243 72.141664,81.6269 71.995186,81.615173 C 71.540102,81.615181 70.951236,81.654243 70.228584,81.732361 C 69.505925,81.810493 68.898503,81.89936 68.406319,81.998962 C 68.265691,82.223579 68.134832,82.492133 68.013741,82.804626 C 67.892645,83.117133 67.793524,83.428167 67.716377,83.737732 C 67.639227,84.047307 67.600653,84.283147 67.600655,84.445251 C 68.016668,84.19721 68.557683,84.007268 69.223701,83.875427 C 69.889713,83.743597 70.445377,83.677679 70.890694,83.677673 C 71.556704,83.695257 72.058656,83.807562 72.396553,84.014587 C 72.734437,84.221624 72.984437,84.601506 73.146553,85.154236 L 73.146553,85.154236 z"
       id="text2199" />
    <path
       style="font-size:12px;font-style:normal;font-weight:normal;fill:#000000;fill-opacity:1;stroke:none;stroke-width:1px;stroke-linecap:butt;stroke-linejoin:miter;stroke-opacity:1;font-family:CC Wild Words"
       d="M 32.652264,80.270447 C 32.954992,80.631784 33.106359,80.919869 33.106365,81.134705 C 33.106359,81.232369 33.082921,81.331002 33.036053,81.430603 C 32.989172,81.53022 32.903234,81.677193 32.77824,81.871521 C 32.653234,82.065864 32.558508,82.215766 32.494061,82.321228 C 32.232336,82.756781 31.960364,83.276312 31.678143,83.879822 C 31.395911,84.483342 31.136634,85.068303 30.900311,85.634705 C 30.699135,86.11127 30.533608,86.566836 30.403728,87.001404 C 30.273842,87.435976 30.179604,87.794374 30.121014,88.076599 C 30.062417,88.358827 30.021401,88.560487 29.997967,88.68158 C 29.929604,88.951111 29.810952,89.160584 29.64201,89.309998 C 29.473062,89.459411 29.29191,89.534118 29.098553,89.534119 C 29.020426,89.534118 28.944254,89.5224 28.870037,89.498962 C 28.598551,89.3974 28.462809,89.260681 28.462811,89.088806 C 28.462809,88.961853 28.546793,88.730408 28.714764,88.39447 C 28.954996,87.699159 29.1923,87.050234 29.426678,86.447693 C 29.66105,85.845157 29.886636,85.303654 30.103436,84.823181 C 30.320229,84.342717 30.552162,83.859808 30.799236,83.374451 C 31.046302,82.889106 31.343665,82.330024 31.691326,81.697205 C 31.468665,81.681587 31.280189,81.673775 31.125896,81.673767 C 29.995034,81.673775 28.879801,81.833931 27.780193,82.154236 C 27.739177,82.165962 27.698649,82.210395 27.658611,82.287537 C 27.618571,82.364692 27.579997,82.425239 27.542889,82.469177 C 27.505779,82.513129 27.436443,82.543891 27.334881,82.561462 C 27.112224,82.506782 26.922283,82.355903 26.765057,82.108826 C 26.60783,81.861763 26.522381,81.644478 26.508709,81.45697 C 26.508709,81.078072 26.623944,80.858346 26.854412,80.797791 C 28.131755,80.432565 29.123941,80.236276 29.830975,80.208923 C 30.075112,80.199167 30.421303,80.183054 30.869549,80.160583 C 31.317786,80.138132 31.631751,80.126901 31.811443,80.126892 C 32.245032,80.126901 32.525305,80.174753 32.652264,80.270447 L 32.652264,80.270447 z"
       id="text2203" />
    <path
       style="font-size:12px;font-style:normal;font-weight:normal;fill:#000000;fill-opacity:1;stroke:none;stroke-width:1px;stroke-linecap:butt;stroke-linejoin:miter;stroke-opacity:1;font-family:CC Wild Words"
       d="M 87.984482,27.72123 C 87.918068,28.174361 87.803811,28.568892 87.641708,28.904823 C 87.479592,29.240766 87.276956,29.532758 87.033798,29.7808 C 86.790628,30.028851 86.53721,30.243695 86.273544,30.425331 C 86.009867,30.606976 85.620219,30.857952 85.104599,31.178261 C 84.770611,31.387248 84.464459,31.59428 84.186142,31.799355 C 83.907819,32.004435 83.662702,32.216837 83.45079,32.436562 C 83.238874,32.65629 83.065534,32.8892 82.930771,33.135292 C 83.362409,32.908731 83.91319,32.73588 84.583115,32.616737 C 85.253032,32.497599 85.898539,32.438029 86.519638,32.438026 C 87.058694,32.438029 87.430764,32.478068 87.635849,32.558144 C 87.751076,32.595255 87.871682,32.713907 87.997665,32.914101 C 88.123635,33.114298 88.186623,33.307168 88.18663,33.492714 C 88.186623,33.813027 87.970803,33.973183 87.539169,33.973183 C 87.394631,33.973183 87.282327,33.965371 87.202255,33.949745 C 86.922952,33.910683 86.63096,33.891152 86.326279,33.891151 C 85.79893,33.891152 85.203227,33.946816 84.539169,34.058144 C 84.339947,34.0933 84.14317,34.149941 83.948837,34.228065 C 83.754498,34.306191 83.525495,34.40873 83.261826,34.535683 C 82.998151,34.662636 82.793562,34.754921 82.648056,34.812538 C 82.502546,34.870155 82.373152,34.898964 82.259872,34.898964 C 82.183699,34.898964 82.119246,34.882362 82.066513,34.849159 C 81.867293,34.737831 81.645125,34.51664 81.400009,34.185585 C 81.154892,33.854531 81.021591,33.564004 81.000107,33.314003 C 81.068466,32.978067 81.330184,32.573282 81.785263,32.099648 C 82.24034,31.626018 82.737898,31.177776 83.277939,30.754921 C 83.817975,30.332074 84.226666,30.032758 84.504013,29.856972 C 86.04893,28.874556 86.888773,28.139205 87.023544,27.650917 C 87.039163,27.584518 87.046976,27.536666 87.046982,27.507362 C 87.046976,27.386276 87.001077,27.28862 86.909286,27.214394 C 86.817484,27.140182 86.702738,27.086472 86.565048,27.053261 C 86.427347,27.020065 86.28184,26.997116 86.128525,26.984413 C 85.975199,26.971726 85.857524,26.961472 85.775497,26.953651 C 85.615336,26.938034 85.491313,26.930222 85.403427,26.930214 C 85.05186,26.930222 84.682232,26.984421 84.29454,27.092812 C 83.906842,27.201218 83.509381,27.37944 83.102158,27.62748 C 82.694929,27.875533 82.297957,28.198775 81.91124,28.597206 C 81.819442,28.638228 81.739364,28.658736 81.671005,28.65873 C 81.510848,28.658736 81.377059,28.586958 81.269638,28.443398 C 81.162216,28.299849 81.108505,28.167525 81.108505,28.046425 C 81.108505,27.714401 81.154892,27.451217 81.247665,27.256874 C 81.340438,27.062546 81.502059,26.889206 81.732529,26.736855 C 82.168074,26.4478 82.586042,26.213914 82.986435,26.035194 C 83.386823,25.856492 83.783307,25.727098 84.175888,25.647011 C 84.568462,25.566942 84.969829,25.526903 85.37999,25.526894 C 85.753032,25.526903 86.172953,25.559129 86.639755,25.623573 C 86.963968,25.701707 87.269143,25.939012 87.555283,26.335487 C 87.841408,26.73198 87.984475,27.193893 87.984482,27.72123 L 87.984482,27.72123 z"
       id="text2207" />
    <path
       style="font-size:12px;font-style:normal;font-weight:normal;fill:#000000;fill-opacity:1;stroke:none;stroke-width:1px;stroke-linecap:butt;stroke-linejoin:miter;stroke-opacity:1;font-family:CC Wild Words"
       d="M 88.539864,70.72123 C 88.446106,70.94389 88.37677,71.106487 88.331856,71.209023 C 88.286926,71.311565 88.232727,71.386272 88.169258,71.433144 C 88.105774,71.480022 88.007141,71.509807 87.87336,71.522499 C 87.739563,71.535198 87.497864,71.548381 87.148262,71.56205 C 87.148255,72.257365 87.176576,72.957559 87.233223,73.662636 C 87.241029,73.742715 87.244935,73.842324 87.244942,73.961464 C 87.244935,74.121621 87.22638,74.236855 87.189278,74.307167 C 87.152162,74.37748 87.078431,74.46537 86.968086,74.570839 C 86.857728,74.676308 86.765443,74.781776 86.691231,74.887245 C 86.648256,74.941932 86.580873,74.969276 86.489082,74.969276 C 86.375795,74.969276 86.263491,74.928749 86.152168,74.847694 C 86.040835,74.76664 85.985171,74.679237 85.985176,74.585487 C 85.936343,74.271035 85.911928,73.875527 85.911934,73.398964 C 85.911928,73.277872 85.913882,73.10795 85.917793,72.889198 C 85.921694,72.67045 85.923647,72.516154 85.923653,72.426308 C 85.923647,72.053263 85.90021,71.785686 85.85334,71.623573 C 85.273257,71.727092 84.753238,71.820354 84.293282,71.903358 C 83.833317,71.986369 83.465154,72.059123 83.188789,72.12162 C 82.91242,72.184123 82.630194,72.264689 82.34211,72.363319 C 82.054022,72.461954 81.755683,72.58256 81.44709,72.725136 C 81.267402,72.6392 81.113105,72.501993 80.9842,72.313515 C 80.855293,72.125041 80.758613,71.916545 80.69416,71.688026 C 80.629707,71.459514 80.597481,71.241741 80.597481,71.034706 C 80.724434,70.788616 80.991523,70.412152 81.39875,69.905312 C 81.805976,69.398481 82.27326,68.854536 82.800606,68.273476 C 83.327947,67.692428 83.850407,67.145065 84.367989,66.631386 C 84.885562,66.117722 85.296695,65.745653 85.601387,65.515175 C 85.747866,65.401903 85.871889,65.345262 85.973457,65.345253 C 86.043764,65.345262 86.106264,65.36577 86.160957,65.406776 C 86.215639,65.447801 86.308412,65.527879 86.439278,65.647011 C 86.572084,65.652879 86.718568,65.743699 86.878731,65.919472 C 87.03888,66.095262 87.124818,66.268113 87.136543,66.438026 C 87.079896,66.836472 87.051576,67.256393 87.051582,67.697792 C 87.051576,67.920455 87.063295,68.223189 87.086739,68.605995 C 87.110169,68.988813 87.126771,69.290571 87.136543,69.511269 C 87.140443,69.587446 87.144349,69.700727 87.148262,69.851112 C 87.152162,70.001508 87.156068,70.111859 87.159981,70.182167 C 87.450989,70.125531 87.710755,70.097211 87.939278,70.097206 C 88.388489,70.097211 88.613098,70.217328 88.613106,70.457558 C 88.613098,70.541546 88.588684,70.629437 88.539864,70.72123 L 88.539864,70.72123 z M 85.841621,70.325722 C 85.841616,70.130414 85.843569,69.85307 85.847481,69.49369 C 85.851382,69.134321 85.853335,68.871626 85.85334,68.705605 C 85.853335,68.113814 85.84064,67.682174 85.815254,67.410683 C 85.133609,67.893111 84.436344,68.482955 83.723457,69.180214 C 83.010564,69.877484 82.52033,70.519085 82.252754,71.105019 C 82.465643,70.999554 82.7674,70.903362 83.158028,70.816444 C 83.54865,70.729534 84.039372,70.636761 84.630196,70.538124 C 85.221011,70.439496 85.624819,70.368695 85.841621,70.325722 L 85.841621,70.325722 z"
       id="text2211" />
    <path
       transform="matrix(1.1028572,0,0,0.9264,-5.3571468,3.3800006)"
       style="fill:#000000;fill-opacity:1;stroke:#000000;stroke-width:1.48399472;stroke-linecap:round;stroke-linejoin:round;stroke-opacity:1"
       d="M 51.554405,50.323833 C 51.554405,51.217616 50.945079,51.943004 50.194302,51.943004 C 49.443524,51.943004 48.834198,51.217616 48.834198,50.323833 C 48.834198,49.430051 49.443524,48.704662 50.194302,48.704662 C 50.945079,48.704662 51.554405,49.430051 51.554405,50.323833 z"
       id="path2233" />
  </g>
</svg>
